<svg xmlns="http://www.w3.org/2000/svg" width="1280" height="720" viewBox="0 0 1280 720" role="img" aria-labelledby="title desc">
  <title id="title">Algorithm and topology coverage</title>
  <desc id="desc">Algorithm and topology coverage. Show implemented primitives/algorithm families and topology-aware phase differences. Truth: HOST_EXECUTED, SIMULATED_ONLY. Limits: coverage does not imply real-device validation. Classification: MAIN.</desc>
  <defs>
    <style>text{font-family:Arial,'Noto Sans',sans-serif;fill:#152238}.title{font-size:34px;font-weight:700}.sub{font-size:17px;fill:#53657a}.label{font-size:16px}.small{font-size:13px;fill:#53657a}.value{font-size:15px;font-weight:700}.node{fill:#f6f8fb;stroke:#9aabc0;stroke-width:2}.primary{fill:#1769aa}.secondary{fill:#3da58a}.warning{fill:#d9852b}.blocked{fill:#c74c4c}.grid{stroke:#d8e0ea;stroke-width:1}.arrow{stroke:#63768c;stroke-width:2;fill:none}.badge{fill:#e8eef5;stroke:#b9c7d7}.badgeText{font-size:12px;font-weight:700}</style>
    <marker id="arrow" viewBox="0 0 10 10" refX="8" refY="5" markerWidth="7" markerHeight="7" orient="auto-start-reverse"><path d="M 0 0 L 10 5 L 0 10 z" fill="#63768c"/></marker>
  </defs>
  <rect width="1280" height="720" fill="#ffffff"/>
  <rect x="0" y="0" width="14" height="720" fill="#1769aa"/>
  <text class="title" x="54" y="64">Algorithm and topology coverage</text>
  <text class="sub" x="54" y="94">Evidence-derived · offline deterministic SVG</text>
  <rect class="badge" x="54" y="112" width="272" height="28" rx="14"/>
  <text class="badgeText" x="70" y="131">HOST_EXECUTED · SIMULATED_ONLY</text>
  <text class="small" x="930" y="160">Scale: linear from zero</text>
  <text class="small" x="54" y="202">p01.phase count</text>
  <rect x="310" y="189" width="650" height="17" fill="#edf1f6" rx="4"/>
  <rect class="primary" x="310" y="189" width="144.4" height="17" rx="4"/>
  <text class="value" x="980" y="203">14.0000 scalar</text>
  <text class="small" x="54" y="233">p11.phase count</text>
  <rect x="310" y="220" width="650" height="17" fill="#edf1f6" rx="4"/>
  <rect class="primary" x="310" y="220" width="650.0" height="17" rx="4"/>
  <text class="value" x="980" y="234">63.0000 scalar</text>
  <text class="small" x="54" y="264">p03.phase count</text>
  <rect x="310" y="251" width="650" height="17" fill="#edf1f6" rx="4"/>
  <rect class="primary" x="310" y="251" width="31.0" height="17" rx="4"/>
  <text class="value" x="980" y="265">3.0000 scalar</text>
  <text class="small" x="54" y="295">p13.phase count</text>
  <rect x="310" y="282" width="650" height="17" fill="#edf1f6" rx="4"/>
  <rect class="primary" x="310" y="282" width="82.5" height="17" rx="4"/>
  <text class="value" x="980" y="296">8.0000 scalar</text>
  <text class="small" x="54" y="326">p05.phase count</text>
  <rect x="310" y="313" width="650" height="17" fill="#edf1f6" rx="4"/>
  <rect class="primary" x="310" y="313" width="72.2" height="17" rx="4"/>
  <text class="value" x="980" y="327">7.0000 scalar</text>
  <text class="small" x="54" y="357">p15.phase count</text>
  <rect x="310" y="344" width="650" height="17" fill="#edf1f6" rx="4"/>
  <rect class="primary" x="310" y="344" width="154.8" height="17" rx="4"/>
  <text class="value" x="980" y="358">15.0000 scalar</text>
  <text class="small" x="54" y="388">p07.phase count</text>
  <rect x="310" y="375" width="650" height="17" fill="#edf1f6" rx="4"/>
  <rect class="primary" x="310" y="375" width="309.5" height="17" rx="4"/>
  <text class="value" x="980" y="389">30.0000 scalar</text>
  <text class="small" x="54" y="419">p17.phase count</text>
  <rect x="310" y="406" width="650" height="17" fill="#edf1f6" rx="4"/>
  <rect class="primary" x="310" y="406" width="206.3" height="17" rx="4"/>
  <text class="value" x="980" y="420">20.0000 scalar</text>
  <text class="small" x="54" y="450">p09.phase count</text>
  <rect x="310" y="437" width="650" height="17" fill="#edf1f6" rx="4"/>
  <rect class="primary" x="310" y="437" width="154.8" height="17" rx="4"/>
  <text class="value" x="980" y="451">15.0000 scalar</text>
  <text class="small" x="54" y="481">p01.phase count</text>
  <rect x="310" y="468" width="650" height="17" fill="#edf1f6" rx="4"/>
  <rect class="primary" x="310" y="468" width="21.2" height="17" rx="4"/>
  <text class="value" x="980" y="482">2.0500 scalar</text>
  <text class="small" x="54" y="512">p11.phase count</text>
  <rect x="310" y="499" width="650" height="17" fill="#edf1f6" rx="4"/>
  <rect class="primary" x="310" y="499" width="650.0" height="17" rx="4"/>
  <text class="value" x="980" y="513">63.0000 scalar</text>
  <text class="small" x="54" y="543">p03.phase count</text>
  <rect x="310" y="530" width="650" height="17" fill="#edf1f6" rx="4"/>
  <rect class="primary" x="310" y="530" width="21.2" height="17" rx="4"/>
  <text class="value" x="980" y="544">2.0500 scalar</text>
  <text class="small" x="54" y="574">p13.phase count</text>
  <rect x="310" y="561" width="650" height="17" fill="#edf1f6" rx="4"/>
  <rect class="primary" x="310" y="561" width="82.5" height="17" rx="4"/>
  <text class="value" x="980" y="575">8.0000 scalar</text>
  <text class="small" x="54" y="605">p05.phase count</text>
  <rect x="310" y="592" width="650" height="17" fill="#edf1f6" rx="4"/>
  <rect class="primary" x="310" y="592" width="72.2" height="17" rx="4"/>
  <text class="value" x="980" y="606">7.0000 scalar</text>
  <line class="grid" x1="54" y1="665" x2="1226" y2="665"/>
  <text class="small" x="54" y="691">Source: docs/submission/report_chart_data/algorithm_support_matrix.json, docs/submission/report_chart_data/schedule_phase_comparison.json</text>
</svg>
